<?xml version="1.0" encoding="utf-8" standalone="no"?>
<!DOCTYPE svg PUBLIC "-//W3C//DTD SVG 1.1//EN"
  "http://www.w3.org/Graphics/SVG/1.1/DTD/svg11.dtd">
<svg xmlns:xlink="http://www.w3.org/1999/xlink" width="720pt" height="360pt" viewBox="0 0 720 360" xmlns="http://www.w3.org/2000/svg" version="1.1">
 <metadata>
  <rdf:RDF xmlns:dc="http://purl.org/dc/elements/1.1/" xmlns:cc="http://creativecommons.org/ns#" xmlns:rdf="http://www.w3.org/1999/02/22-rdf-syntax-ns#">
   <cc:Work>
    <dc:type rdf:resource="http://purl.org/dc/dcmitype/StillImage"/>
    <dc:date>2025-06-01T15:02:19.333991</dc:date>
    <dc:format>image/svg+xml</dc:format>
    <dc:creator>
     <cc:Agent>
      <dc:title>Matplotlib v3.8.2, https://matplotlib.org/</dc:title>
     </cc:Agent>
    </dc:creator>
   </cc:Work>
  </rdf:RDF>
 </metadata>
 <defs>
  <style type="text/css">*{stroke-linejoin: round; stroke-linecap: butt}</style>
 </defs>
 <g id="figure_1">
  <g id="patch_1">
   <path d="M 0 360 
L 720 360 
L 720 0 
L 0 0 
z
" style="fill: #ffffff"/>
  </g>
  <g id="axes_1">
   <g id="patch_2">
    <path d="M 90 320.4 
L 648 320.4 
L 648 43.2 
L 90 43.2 
z
" style="fill: #ffffff"/>
   </g>
   <g id="matplotlib.axis_1">
    <g id="xtick_1">
     <g id="line2d_1">
      <defs>
       <path id="m8df4ebdaf0" d="M 0 0 
L 0 3.5 
" style="stroke: #000000; stroke-width: 0.8"/>
      </defs>
      <g>
       <use xlink:href="#m8df4ebdaf0" x="115.363636" y="320.4" style="stroke: #000000; stroke-width: 0.8"/>
      </g>
     </g>
     <g id="text_1">
      <!-- 0 -->
      <g transform="translate(112.182386 334.998438) scale(0.1 -0.1)">
       <defs>
        <path id="DejaVuSans-30" d="M 2034 4250 
Q 1547 4250 1301 3770 
Q 1056 3291 1056 2328 
Q 1056 1369 1301 889 
Q 1547 409 2034 409 
Q 2525 409 2770 889 
Q 3016 1369 3016 2328 
Q 3016 3291 2770 3770 
Q 2525 4250 2034 4250 
z
M 2034 4750 
Q 2819 4750 3233 4129 
Q 3647 3509 3647 2328 
Q 3647 1150 3233 529 
Q 2819 -91 2034 -91 
Q 1250 -91 836 529 
Q 422 1150 422 2328 
Q 422 3509 836 4129 
Q 1250 4750 2034 4750 
z
" transform="scale(0.015625)"/>
       </defs>
       <use xlink:href="#DejaVuSans-30"/>
      </g>
     </g>
    </g>
    <g id="xtick_2">
     <g id="line2d_2">
      <g>
       <use xlink:href="#m8df4ebdaf0" x="216.818182" y="320.4" style="stroke: #000000; stroke-width: 0.8"/>
      </g>
     </g>
     <g id="text_2">
      <!-- 2 -->
      <g transform="translate(213.636932 334.998438) scale(0.1 -0.1)">
       <defs>
        <path id="DejaVuSans-32" d="M 1228 531 
L 3431 531 
L 3431 0 
L 469 0 
L 469 531 
Q 828 903 1448 1529 
Q 2069 2156 2228 2338 
Q 2531 2678 2651 2914 
Q 2772 3150 2772 3378 
Q 2772 3750 2511 3984 
Q 2250 4219 1831 4219 
Q 1534 4219 1204 4116 
Q 875 4013 500 3803 
L 500 4441 
Q 881 4594 1212 4672 
Q 1544 4750 1819 4750 
Q 2544 4750 2975 4387 
Q 3406 4025 3406 3419 
Q 3406 3131 3298 2873 
Q 3191 2616 2906 2266 
Q 2828 2175 2409 1742 
Q 1991 1309 1228 531 
z
" transform="scale(0.015625)"/>
       </defs>
       <use xlink:href="#DejaVuSans-32"/>
      </g>
     </g>
    </g>
    <g id="xtick_3">
     <g id="line2d_3">
      <g>
       <use xlink:href="#m8df4ebdaf0" x="318.272727" y="320.4" style="stroke: #000000; stroke-width: 0.8"/>
      </g>
     </g>
     <g id="text_3">
      <!-- 4 -->
      <g transform="translate(315.091477 334.998438) scale(0.1 -0.1)">
       <defs>
        <path id="DejaVuSans-34" d="M 2419 4116 
L 825 1625 
L 2419 1625 
L 2419 4116 
z
M 2253 4666 
L 3047 4666 
L 3047 1625 
L 3713 1625 
L 3713 1100 
L 3047 1100 
L 3047 0 
L 2419 0 
L 2419 1100 
L 313 1100 
L 313 1709 
L 2253 4666 
z
" transform="scale(0.015625)"/>
       </defs>
       <use xlink:href="#DejaVuSans-34"/>
      </g>
     </g>
    </g>
    <g id="xtick_4">
     <g id="line2d_4">
      <g>
       <use xlink:href="#m8df4ebdaf0" x="419.727273" y="320.4" style="stroke: #000000; stroke-width: 0.8"/>
      </g>
     </g>
     <g id="text_4">
      <!-- 6 -->
      <g transform="translate(416.546023 334.998438) scale(0.1 -0.1)">
       <defs>
        <path id="DejaVuSans-36" d="M 2113 2584 
Q 1688 2584 1439 2293 
Q 1191 2003 1191 1497 
Q 1191 994 1439 701 
Q 1688 409 2113 409 
Q 2538 409 2786 701 
Q 3034 994 3034 1497 
Q 3034 2003 2786 2293 
Q 2538 2584 2113 2584 
z
M 3366 4563 
L 3366 3988 
Q 3128 4100 2886 4159 
Q 2644 4219 2406 4219 
Q 1781 4219 1451 3797 
Q 1122 3375 1075 2522 
Q 1259 2794 1537 2939 
Q 1816 3084 2150 3084 
Q 2853 3084 3261 2657 
Q 3669 2231 3669 1497 
Q 3669 778 3244 343 
Q 2819 -91 2113 -91 
Q 1303 -91 875 529 
Q 447 1150 447 2328 
Q 447 3434 972 4092 
Q 1497 4750 2381 4750 
Q 2619 4750 2861 4703 
Q 3103 4656 3366 4563 
z
" transform="scale(0.015625)"/>
       </defs>
       <use xlink:href="#DejaVuSans-36"/>
      </g>
     </g>
    </g>
    <g id="xtick_5">
     <g id="line2d_5">
      <g>
       <use xlink:href="#m8df4ebdaf0" x="521.181818" y="320.4" style="stroke: #000000; stroke-width: 0.8"/>
      </g>
     </g>
     <g id="text_5">
      <!-- 8 -->
      <g transform="translate(518.000568 334.998438) scale(0.1 -0.1)">
       <defs>
        <path id="DejaVuSans-38" d="M 2034 2216 
Q 1584 2216 1326 1975 
Q 1069 1734 1069 1313 
Q 1069 891 1326 650 
Q 1584 409 2034 409 
Q 2484 409 2743 651 
Q 3003 894 3003 1313 
Q 3003 1734 2745 1975 
Q 2488 2216 2034 2216 
z
M 1403 2484 
Q 997 2584 770 2862 
Q 544 3141 544 3541 
Q 544 4100 942 4425 
Q 1341 4750 2034 4750 
Q 2731 4750 3128 4425 
Q 3525 4100 3525 3541 
Q 3525 3141 3298 2862 
Q 3072 2584 2669 2484 
Q 3125 2378 3379 2068 
Q 3634 1759 3634 1313 
Q 3634 634 3220 271 
Q 2806 -91 2034 -91 
Q 1263 -91 848 271 
Q 434 634 434 1313 
Q 434 1759 690 2068 
Q 947 2378 1403 2484 
z
M 1172 3481 
Q 1172 3119 1398 2916 
Q 1625 2713 2034 2713 
Q 2441 2713 2670 2916 
Q 2900 3119 2900 3481 
Q 2900 3844 2670 4047 
Q 2441 4250 2034 4250 
Q 1625 4250 1398 4047 
Q 1172 3844 1172 3481 
z
" transform="scale(0.015625)"/>
       </defs>
       <use xlink:href="#DejaVuSans-38"/>
      </g>
     </g>
    </g>
    <g id="xtick_6">
     <g id="line2d_6">
      <g>
       <use xlink:href="#m8df4ebdaf0" x="622.636364" y="320.4" style="stroke: #000000; stroke-width: 0.8"/>
      </g>
     </g>
     <g id="text_6">
      <!-- 10 -->
      <g transform="translate(616.273864 334.998438) scale(0.1 -0.1)">
       <defs>
        <path id="DejaVuSans-31" d="M 794 531 
L 1825 531 
L 1825 4091 
L 703 3866 
L 703 4441 
L 1819 4666 
L 2450 4666 
L 2450 531 
L 3481 531 
L 3481 0 
L 794 0 
L 794 531 
z
" transform="scale(0.015625)"/>
       </defs>
       <use xlink:href="#DejaVuSans-31"/>
       <use xlink:href="#DejaVuSans-30" x="63.623047"/>
      </g>
     </g>
    </g>
   </g>
   <g id="matplotlib.axis_2">
    <g id="ytick_1">
     <g id="line2d_7">
      <defs>
       <path id="m44e68dd1a5" d="M 0 0 
L -3.5 0 
" style="stroke: #000000; stroke-width: 0.8"/>
      </defs>
      <g>
       <use xlink:href="#m44e68dd1a5" x="90" y="307.814296" style="stroke: #000000; stroke-width: 0.8"/>
      </g>
     </g>
     <g id="text_7">
      <!-- −1.00 -->
      <g transform="translate(52.354687 311.613514) scale(0.1 -0.1)">
       <defs>
        <path id="DejaVuSans-2212" d="M 678 2272 
L 4684 2272 
L 4684 1741 
L 678 1741 
L 678 2272 
z
" transform="scale(0.015625)"/>
        <path id="DejaVuSans-2e" d="M 684 794 
L 1344 794 
L 1344 0 
L 684 0 
L 684 794 
z
" transform="scale(0.015625)"/>
       </defs>
       <use xlink:href="#DejaVuSans-2212"/>
       <use xlink:href="#DejaVuSans-31" x="83.789062"/>
       <use xlink:href="#DejaVuSans-2e" x="147.412109"/>
       <use xlink:href="#DejaVuSans-30" x="179.199219"/>
       <use xlink:href="#DejaVuSans-30" x="242.822266"/>
      </g>
     </g>
    </g>
    <g id="ytick_2">
     <g id="line2d_8">
      <g>
       <use xlink:href="#m44e68dd1a5" x="90" y="276.307662" style="stroke: #000000; stroke-width: 0.8"/>
      </g>
     </g>
     <g id="text_8">
      <!-- −0.75 -->
      <g transform="translate(52.354687 280.106881) scale(0.1 -0.1)">
       <defs>
        <path id="DejaVuSans-37" d="M 525 4666 
L 3525 4666 
L 3525 4397 
L 1831 0 
L 1172 0 
L 2766 4134 
L 525 4134 
L 525 4666 
z
" transform="scale(0.015625)"/>
        <path id="DejaVuSans-35" d="M 691 4666 
L 3169 4666 
L 3169 4134 
L 1269 4134 
L 1269 2991 
Q 1406 3038 1543 3061 
Q 1681 3084 1819 3084 
Q 2600 3084 3056 2656 
Q 3513 2228 3513 1497 
Q 3513 744 3044 326 
Q 2575 -91 1722 -91 
Q 1428 -91 1123 -41 
Q 819 9 494 109 
L 494 744 
Q 775 591 1075 516 
Q 1375 441 1709 441 
Q 2250 441 2565 725 
Q 2881 1009 2881 1497 
Q 2881 1984 2565 2268 
Q 2250 2553 1709 2553 
Q 1456 2553 1204 2497 
Q 953 2441 691 2322 
L 691 4666 
z
" transform="scale(0.015625)"/>
       </defs>
       <use xlink:href="#DejaVuSans-2212"/>
       <use xlink:href="#DejaVuSans-30" x="83.789062"/>
       <use xlink:href="#DejaVuSans-2e" x="147.412109"/>
       <use xlink:href="#DejaVuSans-37" x="179.199219"/>
       <use xlink:href="#DejaVuSans-35" x="242.822266"/>
      </g>
     </g>
    </g>
    <g id="ytick_3">
     <g id="line2d_9">
      <g>
       <use xlink:href="#m44e68dd1a5" x="90" y="244.801028" style="stroke: #000000; stroke-width: 0.8"/>
      </g>
     </g>
     <g id="text_9">
      <!-- −0.50 -->
      <g transform="translate(52.354687 248.600247) scale(0.1 -0.1)">
       <use xlink:href="#DejaVuSans-2212"/>
       <use xlink:href="#DejaVuSans-30" x="83.789062"/>
       <use xlink:href="#DejaVuSans-2e" x="147.412109"/>
       <use xlink:href="#DejaVuSans-35" x="179.199219"/>
       <use xlink:href="#DejaVuSans-30" x="242.822266"/>
      </g>
     </g>
    </g>
    <g id="ytick_4">
     <g id="line2d_10">
      <g>
       <use xlink:href="#m44e68dd1a5" x="90" y="213.294395" style="stroke: #000000; stroke-width: 0.8"/>
      </g>
     </g>
     <g id="text_10">
      <!-- −0.25 -->
      <g transform="translate(52.354687 217.093614) scale(0.1 -0.1)">
       <use xlink:href="#DejaVuSans-2212"/>
       <use xlink:href="#DejaVuSans-30" x="83.789062"/>
       <use xlink:href="#DejaVuSans-2e" x="147.412109"/>
       <use xlink:href="#DejaVuSans-32" x="179.199219"/>
       <use xlink:href="#DejaVuSans-35" x="242.822266"/>
      </g>
     </g>
    </g>
    <g id="ytick_5">
     <g id="line2d_11">
      <g>
       <use xlink:href="#m44e68dd1a5" x="90" y="181.787761" style="stroke: #000000; stroke-width: 0.8"/>
      </g>
     </g>
     <g id="text_11">
      <!-- 0.00 -->
      <g transform="translate(60.734375 185.58698) scale(0.1 -0.1)">
       <use xlink:href="#DejaVuSans-30"/>
       <use xlink:href="#DejaVuSans-2e" x="63.623047"/>
       <use xlink:href="#DejaVuSans-30" x="95.410156"/>
       <use xlink:href="#DejaVuSans-30" x="159.033203"/>
      </g>
     </g>
    </g>
    <g id="ytick_6">
     <g id="line2d_12">
      <g>
       <use xlink:href="#m44e68dd1a5" x="90" y="150.281128" style="stroke: #000000; stroke-width: 0.8"/>
      </g>
     </g>
     <g id="text_12">
      <!-- 0.25 -->
      <g transform="translate(60.734375 154.080346) scale(0.1 -0.1)">
       <use xlink:href="#DejaVuSans-30"/>
       <use xlink:href="#DejaVuSans-2e" x="63.623047"/>
       <use xlink:href="#DejaVuSans-32" x="95.410156"/>
       <use xlink:href="#DejaVuSans-35" x="159.033203"/>
      </g>
     </g>
    </g>
    <g id="ytick_7">
     <g id="line2d_13">
      <g>
       <use xlink:href="#m44e68dd1a5" x="90" y="118.774494" style="stroke: #000000; stroke-width: 0.8"/>
      </g>
     </g>
     <g id="text_13">
      <!-- 0.50 -->
      <g transform="translate(60.734375 122.573713) scale(0.1 -0.1)">
       <use xlink:href="#DejaVuSans-30"/>
       <use xlink:href="#DejaVuSans-2e" x="63.623047"/>
       <use xlink:href="#DejaVuSans-35" x="95.410156"/>
       <use xlink:href="#DejaVuSans-30" x="159.033203"/>
      </g>
     </g>
    </g>
    <g id="ytick_8">
     <g id="line2d_14">
      <g>
       <use xlink:href="#m44e68dd1a5" x="90" y="87.26786" style="stroke: #000000; stroke-width: 0.8"/>
      </g>
     </g>
     <g id="text_14">
      <!-- 0.75 -->
      <g transform="translate(60.734375 91.067079) scale(0.1 -0.1)">
       <use xlink:href="#DejaVuSans-30"/>
       <use xlink:href="#DejaVuSans-2e" x="63.623047"/>
       <use xlink:href="#DejaVuSans-37" x="95.410156"/>
       <use xlink:href="#DejaVuSans-35" x="159.033203"/>
      </g>
     </g>
    </g>
    <g id="ytick_9">
     <g id="line2d_15">
      <g>
       <use xlink:href="#m44e68dd1a5" x="90" y="55.761227" style="stroke: #000000; stroke-width: 0.8"/>
      </g>
     </g>
     <g id="text_15">
      <!-- 1.00 -->
      <g transform="translate(60.734375 59.560446) scale(0.1 -0.1)">
       <use xlink:href="#DejaVuSans-31"/>
       <use xlink:href="#DejaVuSans-2e" x="63.623047"/>
       <use xlink:href="#DejaVuSans-30" x="95.410156"/>
       <use xlink:href="#DejaVuSans-30" x="159.033203"/>
      </g>
     </g>
    </g>
   </g>
   <g id="line2d_16">
    <path d="M 115.363636 181.787761 
L 120.487603 169.079445 
L 125.61157 156.500681 
L 130.735537 144.179704 
L 135.859504 132.242116 
L 140.983471 120.809616 
L 146.107438 109.998749 
L 151.231405 99.919725 
L 156.355372 90.675295 
L 161.479339 82.359699 
L 166.603306 75.057709 
L 171.727273 68.843764 
L 176.85124 63.781212 
L 181.975207 59.921662 
L 187.099174 57.30446 
L 192.22314 55.956287 
L 197.347107 55.890886 
L 202.471074 57.108925 
L 207.595041 59.597985 
L 212.719008 63.332693 
L 217.842975 68.274975 
L 222.966942 74.374449 
L 228.090909 81.568933 
L 233.214876 89.785085 
L 238.338843 98.939147 
L 243.46281 108.937797 
L 248.586777 119.679107 
L 253.710744 131.053575 
L 258.834711 142.945247 
L 263.958678 155.232893 
L 269.082645 167.79125 
L 274.206612 180.492291 
L 279.330579 193.20654 
L 284.454545 205.804381 
L 289.578512 218.157388 
L 294.702479 230.13963 
L 299.826446 241.628955 
L 304.950413 252.508236 
L 310.07438 262.666567 
L 315.198347 272.00039 
L 320.322314 280.414552 
L 325.446281 287.823276 
L 330.570248 294.151035 
L 335.694215 299.333322 
L 340.818182 303.317306 
L 345.942149 306.062372 
L 351.066116 307.540538 
L 356.190083 307.736734 
L 361.31405 306.648959 
L 366.438017 304.288303 
L 371.561983 300.678832 
L 376.68595 295.857341 
L 381.809917 289.872983 
L 386.933884 282.786765 
L 392.057851 274.670925 
L 397.181818 265.6082 
L 402.305785 255.690979 
L 407.429752 245.020361 
L 412.553719 233.705127 
L 417.677686 221.860628 
L 422.801653 209.607611 
L 427.92562 197.070989 
L 433.049587 184.378564 
L 438.173554 171.659727 
L 443.297521 159.044139 
L 448.421488 146.660408 
L 453.545455 134.634778 
L 458.669421 123.089843 
L 463.793388 112.143297 
L 468.917355 101.906731 
L 474.041322 92.484502 
L 479.165289 83.972664 
L 484.289256 76.457988 
L 489.413223 70.017083 
L 494.53719 64.71561 
L 499.661157 60.607613 
L 504.785124 57.734971 
L 509.909091 56.12697 
L 515.033058 55.8 
L 520.157025 56.757396 
L 525.280992 58.989398 
L 530.404959 62.473251 
L 535.528926 67.173441 
L 540.652893 73.042051 
L 545.77686 80.019255 
L 550.900826 88.033924 
L 556.024793 97.004355 
L 561.14876 106.839099 
L 566.272727 117.437897 
L 571.396694 128.692702 
L 576.520661 140.488777 
L 581.644628 152.705869 
L 586.768595 165.219432 
L 591.892562 177.9019 
L 597.016529 190.623981 
L 602.140496 203.255982 
L 607.264463 215.669129 
L 612.38843 227.736876 
L 617.512397 239.336201 
L 622.636364 250.348856 
" clip-path="url(#pfc7404d85c)" style="fill: none; stroke: #1f77b4; stroke-width: 1.5; stroke-linecap: square"/>
   </g>
   <g id="line2d_17">
    <path d="M 115.363636 287.835433 
L 120.487603 280.428556 
L 125.61157 272.016098 
L 130.735537 262.683819 
L 135.859504 252.526856 
L 140.983471 241.648753 
L 146.107438 230.160405 
L 151.231405 218.178928 
L 156.355372 205.826466 
L 161.479339 193.228944 
L 166.603306 180.514788 
L 171.727273 167.813608 
L 176.85124 155.254886 
L 181.975207 142.96665 
L 187.099174 131.07417 
L 192.22314 119.698684 
L 197.347107 108.956156 
L 202.471074 98.956101 
L 207.595041 89.800462 
L 212.719008 81.582575 
L 217.842975 74.386218 
L 222.966942 68.284751 
L 228.090909 63.340375 
L 233.214876 59.603496 
L 238.338843 57.112208 
L 243.46281 55.891909 
L 248.586777 55.955038 
L 253.710744 57.300953 
L 258.834711 59.915931 
L 263.958678 63.773317 
L 269.082645 68.833784 
L 274.206612 75.045747 
L 279.330579 82.345877 
L 284.454545 90.659753 
L 289.578512 99.902623 
L 294.702479 109.98026 
L 299.826446 120.789928 
L 304.950413 132.221431 
L 310.07438 144.158232 
L 315.198347 156.478642 
L 320.322314 169.057062 
L 325.446281 181.765264 
L 330.570248 194.473695 
L 335.694215 207.052801 
L 340.818182 219.374346 
L 345.942149 231.312719 
L 351.066116 242.746217 
L 356.190083 253.558282 
L 361.31405 263.638692 
L 366.438017 272.884683 
L 371.561983 281.201998 
L 376.68595 288.505849 
L 381.809917 294.721775 
L 386.933884 299.786411 
L 392.057851 303.648125 
L 397.181818 306.26755 
L 402.305785 307.617982 
L 407.429752 307.685654 
L 412.553719 306.469877 
L 417.677686 303.983044 
L 422.801653 300.250508 
L 427.92562 295.310319 
L 433.049587 289.212839 
L 438.173554 282.020228 
L 443.297521 273.805811 
L 448.421488 264.653327 
L 453.545455 254.656082 
L 458.669421 243.91599 
L 463.793388 232.54254 
L 468.917355 220.651677 
L 474.041322 208.364621 
L 479.165289 195.806631 
L 484.289256 183.105727 
L 489.413223 170.391387 
L 494.53719 157.793227 
L 499.661157 145.439675 
L 504.785124 133.456669 
L 509.909091 121.966368 
L 515.033058 111.085909 
L 520.157025 100.92621 
L 525.280992 91.590843 
L 530.404959 83.174977 
L 535.528926 75.764407 
L 540.652893 69.434677 
L 545.77686 64.250316 
L 550.900826 60.264175 
L 556.024793 57.51689 
L 561.14876 56.036468 
L 566.272727 55.838002 
L 571.396694 56.923513 
L 576.520661 59.281937 
L 581.644628 62.88923 
L 586.768595 67.708618 
L 591.892562 73.690972 
L 597.016529 80.775304 
L 602.140496 88.889394 
L 607.264463 97.950524 
L 612.38843 107.866322 
L 617.512397 118.535702 
L 622.636364 129.849897 
" clip-path="url(#pfc7404d85c)" style="fill: none; stroke-dasharray: 5.55,2.4; stroke-dashoffset: 0; stroke: #ff7f0e; stroke-width: 1.5"/>
   </g>
   <g id="line2d_18">
    <path d="M 115.363636 296.383365 
L 120.487603 301.087776 
L 125.61157 304.575998 
L 130.735537 306.812472 
L 135.859504 307.774398 
L 140.983471 307.45197 
L 146.107438 305.848475 
L 151.231405 302.980259 
L 156.355372 298.876562 
L 161.479339 293.579219 
L 166.603306 287.142233 
L 171.727273 279.631224 
L 176.85124 271.122763 
L 181.975207 261.703588 
L 187.099174 251.469722 
L 192.22314 240.525492 
L 197.347107 228.982468 
L 202.471074 216.958323 
L 207.595041 204.575638 
L 212.719008 191.960644 
L 217.842975 179.241944 
L 222.966942 166.549197 
L 228.090909 154.011797 
L 233.214876 141.757556 
L 238.338843 129.911398 
L 243.46281 118.594086 
L 248.586777 107.920994 
L 253.710744 98.000927 
L 258.834711 88.935014 
L 263.958678 80.815676 
L 269.082645 73.725685 
L 274.206612 67.737318 
L 279.330579 62.911623 
L 284.454545 59.297796 
L 289.578512 56.932676 
L 294.702479 55.840375 
L 299.826446 56.032028 
L 304.950413 57.505682 
L 310.07438 60.246312 
L 315.198347 64.225981 
L 320.322314 69.404118 
L 325.446281 75.727936 
L 330.570248 83.132966 
L 335.694215 91.543719 
L 340.818182 100.874454 
L 345.942149 111.030048 
L 351.066116 121.906973 
L 356.190083 133.394345 
L 361.31405 145.375056 
L 366.438017 157.726973 
L 371.561983 170.324174 
L 376.68595 183.038239 
L 381.809917 195.739556 
L 386.933884 208.298643 
L 392.057851 220.587469 
L 397.181818 232.480756 
L 402.305785 243.85726 
L 407.429752 254.601005 
L 412.553719 264.602465 
L 417.677686 273.759681 
L 422.801653 281.979302 
L 427.92562 289.177533 
L 433.049587 295.280993 
L 438.173554 300.227461 
L 443.297521 303.966512 
L 448.421488 306.460027 
L 453.545455 307.682587 
L 458.669421 307.62173 
L 463.793388 306.278074 
L 468.917355 303.665318 
L 474.041322 299.810098 
L 479.165289 294.751714 
L 484.289256 288.541734 
L 489.413223 281.243465 
L 494.53719 272.931308 
L 499.661157 263.69 
L 504.785124 253.61375 
L 509.909091 242.80528 
L 515.033058 231.374774 
L 520.157025 219.438761 
L 525.280992 207.118919 
L 530.404959 194.540842 
L 535.528926 181.832756 
L 540.652893 169.124211 
L 545.77686 156.544762 
L 550.900826 144.22265 
L 556.024793 132.283491 
L 561.14876 120.848997 
L 566.272727 110.035734 
L 571.396694 99.953939 
L 576.520661 90.706387 
L 581.644628 82.387353 
L 586.768595 75.081642 
L 591.892562 68.863734 
L 597.016529 63.797014 
L 602.140496 59.933136 
L 607.264463 57.311488 
L 612.38843 55.958798 
L 617.512397 55.888854 
L 622.636364 57.10237 
" clip-path="url(#pfc7404d85c)" style="fill: none; stroke-dasharray: 1.5,2.475; stroke-dashoffset: 0; stroke: #2ca02c; stroke-width: 1.5"/>
   </g>
   <g id="line2d_19">
    <path d="M 115.363636 199.572627 
L 120.487603 212.063112 
L 125.61157 224.244959 
L 130.735537 235.993982 
L 135.859504 247.190407 
L 140.983471 257.720093 
L 146.107438 267.475697 
L 151.231405 276.357767 
L 156.355372 284.275755 
L 161.479339 291.148943 
L 166.603306 296.907263 
L 171.727273 301.492012 
L 176.85124 304.856451 
L 181.975207 306.966284 
L 187.099174 307.8 
L 192.22314 307.349101 
L 197.347107 305.618184 
L 202.471074 302.624893 
L 207.595041 298.399745 
L 212.719008 292.985811 
L 217.842975 286.438283 
L 222.966942 278.823909 
L 228.090909 270.220313 
L 233.214876 260.715203 
L 238.338843 250.405477 
L 243.46281 239.396237 
L 248.586777 227.799715 
L 253.710744 215.734131 
L 258.834711 203.322484 
L 263.958678 190.691305 
L 269.082645 177.96936 
L 274.206612 165.286341 
L 279.330579 152.771543 
L 284.454545 140.552547 
L 289.578512 128.753919 
L 294.702479 117.495937 
L 299.826446 106.893369 
L 304.950413 97.054303 
L 310.07438 88.07904 
L 315.198347 80.059079 
L 320.322314 73.076177 
L 325.446281 67.201522 
L 330.570248 62.495 
L 335.694215 59.004593 
L 340.818182 56.765883 
L 345.942149 55.801692 
L 351.066116 56.121849 
L 356.190083 57.723091 
L 361.31405 60.589094 
L 366.438017 64.690641 
L 371.561983 69.985919 
L 376.68595 76.420946 
L 381.809917 83.930121 
L 386.933884 92.436893 
L 392.057851 101.85454 
L 397.181818 112.087056 
L 402.305785 123.030127 
L 407.429752 134.572195 
L 412.553719 146.595596 
L 417.677686 158.977759 
L 422.801653 171.592455 
L 427.92562 184.311086 
L 433.049587 197.003993 
L 438.173554 209.541781 
L 443.297521 221.796633 
L 448.421488 233.643621 
L 453.545455 244.96197 
L 458.669421 255.636299 
L 463.793388 265.557788 
L 468.917355 274.625295 
L 474.041322 282.746382 
L 479.165289 289.83826 
L 484.289256 295.828631 
L 489.413223 300.656427 
L 494.53719 304.272432 
L 499.661157 306.639784 
L 504.785124 307.734348 
L 509.909091 307.544966 
L 515.033058 306.073569 
L 520.157025 303.335157 
L 525.280992 299.357645 
L 530.404959 294.181583 
L 535.528926 287.859737 
L 540.652893 280.456554 
L 545.77686 272.047505 
L 550.900826 262.718316 
L 556.024793 252.56409 
L 561.14876 241.688344 
L 566.272727 230.20195 
L 571.396694 218.222003 
L 576.520661 205.870633 
L 581.644628 193.273752 
L 586.768595 180.55978 
L 591.892562 167.858326 
L 597.016529 155.298873 
L 602.140496 143.009459 
L 607.264463 131.115364 
L 612.38843 119.737843 
L 617.512397 108.992881 
L 622.636364 98.990017 
" clip-path="url(#pfc7404d85c)" style="fill: none; stroke-dasharray: 9.6,2.4,1.5,2.4; stroke-dashoffset: 0; stroke: #d62728; stroke-width: 1.5"/>
   </g>
   <g id="patch_3">
    <path d="M 90 320.4 
L 90 43.2 
" style="fill: none; stroke: #000000; stroke-width: 0.8; stroke-linejoin: miter; stroke-linecap: square"/>
   </g>
   <g id="patch_4">
    <path d="M 648 320.4 
L 648 43.2 
" style="fill: none; stroke: #000000; stroke-width: 0.8; stroke-linejoin: miter; stroke-linecap: square"/>
   </g>
   <g id="patch_5">
    <path d="M 90 320.4 
L 648 320.4 
" style="fill: none; stroke: #000000; stroke-width: 0.8; stroke-linejoin: miter; stroke-linecap: square"/>
   </g>
   <g id="patch_6">
    <path d="M 90 43.2 
L 648 43.2 
" style="fill: none; stroke: #000000; stroke-width: 0.8; stroke-linejoin: miter; stroke-linecap: square"/>
   </g>
   <g id="text_16">
    <!-- Different Line Styles -->
    <g transform="translate(308.10375 37.2) scale(0.12 -0.12)">
     <defs>
      <path id="DejaVuSans-44" d="M 1259 4147 
L 1259 519 
L 2022 519 
Q 2988 519 3436 956 
Q 3884 1394 3884 2338 
Q 3884 3275 3436 3711 
Q 2988 4147 2022 4147 
L 1259 4147 
z
M 628 4666 
L 1925 4666 
Q 3281 4666 3915 4102 
Q 4550 3538 4550 2338 
Q 4550 1131 3912 565 
Q 3275 0 1925 0 
L 628 0 
L 628 4666 
z
" transform="scale(0.015625)"/>
      <path id="DejaVuSans-69" d="M 603 3500 
L 1178 3500 
L 1178 0 
L 603 0 
L 603 3500 
z
M 603 4863 
L 1178 4863 
L 1178 4134 
L 603 4134 
L 603 4863 
z
" transform="scale(0.015625)"/>
      <path id="DejaVuSans-66" d="M 2375 4863 
L 2375 4384 
L 1825 4384 
Q 1516 4384 1395 4259 
Q 1275 4134 1275 3809 
L 1275 3500 
L 2222 3500 
L 2222 3053 
L 1275 3053 
L 1275 0 
L 697 0 
L 697 3053 
L 147 3053 
L 147 3500 
L 697 3500 
L 697 3744 
Q 697 4328 969 4595 
Q 1241 4863 1831 4863 
L 2375 4863 
z
" transform="scale(0.015625)"/>
      <path id="DejaVuSans-65" d="M 3597 1894 
L 3597 1613 
L 953 1613 
Q 991 1019 1311 708 
Q 1631 397 2203 397 
Q 2534 397 2845 478 
Q 3156 559 3463 722 
L 3463 178 
Q 3153 47 2828 -22 
Q 2503 -91 2169 -91 
Q 1331 -91 842 396 
Q 353 884 353 1716 
Q 353 2575 817 3079 
Q 1281 3584 2069 3584 
Q 2775 3584 3186 3129 
Q 3597 2675 3597 1894 
z
M 3022 2063 
Q 3016 2534 2758 2815 
Q 2500 3097 2075 3097 
Q 1594 3097 1305 2825 
Q 1016 2553 972 2059 
L 3022 2063 
z
" transform="scale(0.015625)"/>
      <path id="DejaVuSans-72" d="M 2631 2963 
Q 2534 3019 2420 3045 
Q 2306 3072 2169 3072 
Q 1681 3072 1420 2755 
Q 1159 2438 1159 1844 
L 1159 0 
L 581 0 
L 581 3500 
L 1159 3500 
L 1159 2956 
Q 1341 3275 1631 3429 
Q 1922 3584 2338 3584 
Q 2397 3584 2469 3576 
Q 2541 3569 2628 3553 
L 2631 2963 
z
" transform="scale(0.015625)"/>
      <path id="DejaVuSans-6e" d="M 3513 2113 
L 3513 0 
L 2938 0 
L 2938 2094 
Q 2938 2591 2744 2837 
Q 2550 3084 2163 3084 
Q 1697 3084 1428 2787 
Q 1159 2491 1159 1978 
L 1159 0 
L 581 0 
L 581 3500 
L 1159 3500 
L 1159 2956 
Q 1366 3272 1645 3428 
Q 1925 3584 2291 3584 
Q 2894 3584 3203 3211 
Q 3513 2838 3513 2113 
z
" transform="scale(0.015625)"/>
      <path id="DejaVuSans-74" d="M 1172 4494 
L 1172 3500 
L 2356 3500 
L 2356 3053 
L 1172 3053 
L 1172 1153 
Q 1172 725 1289 603 
Q 1406 481 1766 481 
L 2356 481 
L 2356 0 
L 1766 0 
Q 1100 0 847 248 
Q 594 497 594 1153 
L 594 3053 
L 172 3053 
L 172 3500 
L 594 3500 
L 594 4494 
L 1172 4494 
z
" transform="scale(0.015625)"/>
      <path id="DejaVuSans-20" transform="scale(0.015625)"/>
      <path id="DejaVuSans-4c" d="M 628 4666 
L 1259 4666 
L 1259 531 
L 3531 531 
L 3531 0 
L 628 0 
L 628 4666 
z
" transform="scale(0.015625)"/>
      <path id="DejaVuSans-53" d="M 3425 4513 
L 3425 3897 
Q 3066 4069 2747 4153 
Q 2428 4238 2131 4238 
Q 1616 4238 1336 4038 
Q 1056 3838 1056 3469 
Q 1056 3159 1242 3001 
Q 1428 2844 1947 2747 
L 2328 2669 
Q 3034 2534 3370 2195 
Q 3706 1856 3706 1288 
Q 3706 609 3251 259 
Q 2797 -91 1919 -91 
Q 1588 -91 1214 -16 
Q 841 59 441 206 
L 441 856 
Q 825 641 1194 531 
Q 1563 422 1919 422 
Q 2459 422 2753 634 
Q 3047 847 3047 1241 
Q 3047 1584 2836 1778 
Q 2625 1972 2144 2069 
L 1759 2144 
Q 1053 2284 737 2584 
Q 422 2884 422 3419 
Q 422 4038 858 4394 
Q 1294 4750 2059 4750 
Q 2388 4750 2728 4690 
Q 3069 4631 3425 4513 
z
" transform="scale(0.015625)"/>
      <path id="DejaVuSans-79" d="M 2059 -325 
Q 1816 -950 1584 -1140 
Q 1353 -1331 966 -1331 
L 506 -1331 
L 506 -850 
L 844 -850 
Q 1081 -850 1212 -737 
Q 1344 -625 1503 -206 
L 1606 56 
L 191 3500 
L 800 3500 
L 1894 763 
L 2988 3500 
L 3597 3500 
L 2059 -325 
z
" transform="scale(0.015625)"/>
      <path id="DejaVuSans-6c" d="M 603 4863 
L 1178 4863 
L 1178 0 
L 603 0 
L 603 4863 
z
" transform="scale(0.015625)"/>
      <path id="DejaVuSans-73" d="M 2834 3397 
L 2834 2853 
Q 2591 2978 2328 3040 
Q 2066 3103 1784 3103 
Q 1356 3103 1142 2972 
Q 928 2841 928 2578 
Q 928 2378 1081 2264 
Q 1234 2150 1697 2047 
L 1894 2003 
Q 2506 1872 2764 1633 
Q 3022 1394 3022 966 
Q 3022 478 2636 193 
Q 2250 -91 1575 -91 
Q 1294 -91 989 -36 
Q 684 19 347 128 
L 347 722 
Q 666 556 975 473 
Q 1284 391 1588 391 
Q 1994 391 2212 530 
Q 2431 669 2431 922 
Q 2431 1156 2273 1281 
Q 2116 1406 1581 1522 
L 1381 1569 
Q 847 1681 609 1914 
Q 372 2147 372 2553 
Q 372 3047 722 3315 
Q 1072 3584 1716 3584 
Q 2034 3584 2315 3537 
Q 2597 3491 2834 3397 
z
" transform="scale(0.015625)"/>
     </defs>
     <use xlink:href="#DejaVuSans-44"/>
     <use xlink:href="#DejaVuSans-69" x="77.001953"/>
     <use xlink:href="#DejaVuSans-66" x="104.785156"/>
     <use xlink:href="#DejaVuSans-66" x="139.990234"/>
     <use xlink:href="#DejaVuSans-65" x="175.195312"/>
     <use xlink:href="#DejaVuSans-72" x="236.71875"/>
     <use xlink:href="#DejaVuSans-65" x="275.582031"/>
     <use xlink:href="#DejaVuSans-6e" x="337.105469"/>
     <use xlink:href="#DejaVuSans-74" x="400.484375"/>
     <use xlink:href="#DejaVuSans-20" x="439.693359"/>
     <use xlink:href="#DejaVuSans-4c" x="471.480469"/>
     <use xlink:href="#DejaVuSans-69" x="527.193359"/>
     <use xlink:href="#DejaVuSans-6e" x="554.976562"/>
     <use xlink:href="#DejaVuSans-65" x="618.355469"/>
     <use xlink:href="#DejaVuSans-20" x="679.878906"/>
     <use xlink:href="#DejaVuSans-53" x="711.666016"/>
     <use xlink:href="#DejaVuSans-74" x="775.142578"/>
     <use xlink:href="#DejaVuSans-79" x="814.351562"/>
     <use xlink:href="#DejaVuSans-6c" x="873.53125"/>
     <use xlink:href="#DejaVuSans-65" x="901.314453"/>
     <use xlink:href="#DejaVuSans-73" x="962.837891"/>
    </g>
   </g>
   <g id="legend_1">
    <g id="patch_7">
     <path d="M 568.589062 315.4 
L 641 315.4 
Q 643 315.4 643 313.4 
L 643 255.6875 
Q 643 253.6875 641 253.6875 
L 568.589062 253.6875 
Q 566.589062 253.6875 566.589062 255.6875 
L 566.589062 313.4 
Q 566.589062 315.4 568.589062 315.4 
z
" style="fill: #ffffff; opacity: 0.8; stroke: #cccccc; stroke-linejoin: miter"/>
    </g>
    <g id="line2d_20">
     <path d="M 570.589062 261.785937 
L 580.589062 261.785937 
L 590.589062 261.785937 
" style="fill: none; stroke: #1f77b4; stroke-width: 1.5; stroke-linecap: square"/>
    </g>
    <g id="text_17">
     <!-- solid -->
     <g transform="translate(598.589062 265.285937) scale(0.1 -0.1)">
      <defs>
       <path id="DejaVuSans-6f" d="M 1959 3097 
Q 1497 3097 1228 2736 
Q 959 2375 959 1747 
Q 959 1119 1226 758 
Q 1494 397 1959 397 
Q 2419 397 2687 759 
Q 2956 1122 2956 1747 
Q 2956 2369 2687 2733 
Q 2419 3097 1959 3097 
z
M 1959 3584 
Q 2709 3584 3137 3096 
Q 3566 2609 3566 1747 
Q 3566 888 3137 398 
Q 2709 -91 1959 -91 
Q 1206 -91 779 398 
Q 353 888 353 1747 
Q 353 2609 779 3096 
Q 1206 3584 1959 3584 
z
" transform="scale(0.015625)"/>
       <path id="DejaVuSans-64" d="M 2906 2969 
L 2906 4863 
L 3481 4863 
L 3481 0 
L 2906 0 
L 2906 525 
Q 2725 213 2448 61 
Q 2172 -91 1784 -91 
Q 1150 -91 751 415 
Q 353 922 353 1747 
Q 353 2572 751 3078 
Q 1150 3584 1784 3584 
Q 2172 3584 2448 3432 
Q 2725 3281 2906 2969 
z
M 947 1747 
Q 947 1113 1208 752 
Q 1469 391 1925 391 
Q 2381 391 2643 752 
Q 2906 1113 2906 1747 
Q 2906 2381 2643 2742 
Q 2381 3103 1925 3103 
Q 1469 3103 1208 2742 
Q 947 2381 947 1747 
z
" transform="scale(0.015625)"/>
      </defs>
      <use xlink:href="#DejaVuSans-73"/>
      <use xlink:href="#DejaVuSans-6f" x="52.099609"/>
      <use xlink:href="#DejaVuSans-6c" x="113.28125"/>
      <use xlink:href="#DejaVuSans-69" x="141.064453"/>
      <use xlink:href="#DejaVuSans-64" x="168.847656"/>
     </g>
    </g>
    <g id="line2d_21">
     <path d="M 570.589062 276.464063 
L 580.589062 276.464063 
L 590.589062 276.464063 
" style="fill: none; stroke-dasharray: 5.55,2.4; stroke-dashoffset: 0; stroke: #ff7f0e; stroke-width: 1.5"/>
    </g>
    <g id="text_18">
     <!-- dashed -->
     <g transform="translate(598.589062 279.964063) scale(0.1 -0.1)">
      <defs>
       <path id="DejaVuSans-61" d="M 2194 1759 
Q 1497 1759 1228 1600 
Q 959 1441 959 1056 
Q 959 750 1161 570 
Q 1363 391 1709 391 
Q 2188 391 2477 730 
Q 2766 1069 2766 1631 
L 2766 1759 
L 2194 1759 
z
M 3341 1997 
L 3341 0 
L 2766 0 
L 2766 531 
Q 2569 213 2275 61 
Q 1981 -91 1556 -91 
Q 1019 -91 701 211 
Q 384 513 384 1019 
Q 384 1609 779 1909 
Q 1175 2209 1959 2209 
L 2766 2209 
L 2766 2266 
Q 2766 2663 2505 2880 
Q 2244 3097 1772 3097 
Q 1472 3097 1187 3025 
Q 903 2953 641 2809 
L 641 3341 
Q 956 3463 1253 3523 
Q 1550 3584 1831 3584 
Q 2591 3584 2966 3190 
Q 3341 2797 3341 1997 
z
" transform="scale(0.015625)"/>
       <path id="DejaVuSans-68" d="M 3513 2113 
L 3513 0 
L 2938 0 
L 2938 2094 
Q 2938 2591 2744 2837 
Q 2550 3084 2163 3084 
Q 1697 3084 1428 2787 
Q 1159 2491 1159 1978 
L 1159 0 
L 581 0 
L 581 4863 
L 1159 4863 
L 1159 2956 
Q 1366 3272 1645 3428 
Q 1925 3584 2291 3584 
Q 2894 3584 3203 3211 
Q 3513 2838 3513 2113 
z
" transform="scale(0.015625)"/>
      </defs>
      <use xlink:href="#DejaVuSans-64"/>
      <use xlink:href="#DejaVuSans-61" x="63.476562"/>
      <use xlink:href="#DejaVuSans-73" x="124.755859"/>
      <use xlink:href="#DejaVuSans-68" x="176.855469"/>
      <use xlink:href="#DejaVuSans-65" x="240.234375"/>
      <use xlink:href="#DejaVuSans-64" x="301.757812"/>
     </g>
    </g>
    <g id="line2d_22">
     <path d="M 570.589062 291.142187 
L 580.589062 291.142187 
L 590.589062 291.142187 
" style="fill: none; stroke-dasharray: 1.5,2.475; stroke-dashoffset: 0; stroke: #2ca02c; stroke-width: 1.5"/>
    </g>
    <g id="text_19">
     <!-- dotted -->
     <g transform="translate(598.589062 294.642187) scale(0.1 -0.1)">
      <use xlink:href="#DejaVuSans-64"/>
      <use xlink:href="#DejaVuSans-6f" x="63.476562"/>
      <use xlink:href="#DejaVuSans-74" x="124.658203"/>
      <use xlink:href="#DejaVuSans-74" x="163.867188"/>
      <use xlink:href="#DejaVuSans-65" x="203.076172"/>
      <use xlink:href="#DejaVuSans-64" x="264.599609"/>
     </g>
    </g>
    <g id="line2d_23">
     <path d="M 570.589062 305.820312 
L 580.589062 305.820312 
L 590.589062 305.820312 
" style="fill: none; stroke-dasharray: 9.6,2.4,1.5,2.4; stroke-dashoffset: 0; stroke: #d62728; stroke-width: 1.5"/>
    </g>
    <g id="text_20">
     <!-- dashdot -->
     <g transform="translate(598.589062 309.320312) scale(0.1 -0.1)">
      <use xlink:href="#DejaVuSans-64"/>
      <use xlink:href="#DejaVuSans-61" x="63.476562"/>
      <use xlink:href="#DejaVuSans-73" x="124.755859"/>
      <use xlink:href="#DejaVuSans-68" x="176.855469"/>
      <use xlink:href="#DejaVuSans-64" x="240.234375"/>
      <use xlink:href="#DejaVuSans-6f" x="303.710938"/>
      <use xlink:href="#DejaVuSans-74" x="364.892578"/>
     </g>
    </g>
   </g>
  </g>
 </g>
 <defs>
  <clipPath id="pfc7404d85c">
   <rect x="90" y="43.2" width="558" height="277.2"/>
  </clipPath>
 </defs>
</svg>
